<svg xmlns="http://www.w3.org/2000/svg" fill="none" viewBox="0 0 149 45" height="45" width="149">
<g clip-path="url(#clip0_17871_39389)">
<path fill="#444C54" d="M42.2783 28.2174L42.2562 22.8221C42.2267 16.6233 44.2684 13.0485 51.4475 13.0116L57.7347 12.9821C64.9138 12.9526 66.985 16.5127 67.0145 22.7115L67.0366 26.7285C67.0366 27.4435 66.6386 27.8415 65.9236 27.8489L48.1749 27.93V28.8218C48.197 31.9028 49.0004 32.6104 51.676 32.5957L65.9089 32.5367C66.6238 32.5367 67.0219 32.9347 67.0292 33.6497L67.044 36.9075C67.044 37.6225 66.646 38.0279 65.9384 38.0279L51.5654 38.0869C44.3863 38.1163 42.3151 34.6079 42.2857 28.2248L42.2783 28.2174ZM61.1253 23.3601V22.2029C61.1032 19.1735 60.344 18.4586 57.6242 18.4733L51.6023 18.5028C48.8825 18.5175 48.1233 19.2325 48.138 22.2619V23.4191L61.1253 23.3601Z"></path>
<path fill="#444C54" d="M70.9502 36.8779L70.9355 33.62C70.9355 32.9051 71.3335 32.4997 72.0485 32.4997L84.3134 32.4407C86.7678 32.4333 87.7039 31.8879 87.6966 30.3327C87.6966 28.7701 87.0184 28.372 84.6524 28.1141L77.7829 27.3844C72.2033 26.7873 70.3679 24.6498 70.3458 20.0136C70.3237 15.1489 73.1688 12.9082 79.2792 12.8787L91.2345 12.8271C91.9495 12.8271 92.3475 13.2252 92.3549 13.9401L92.3696 17.198C92.3696 17.913 91.9716 18.311 91.2566 18.3184L79.4339 18.3699C77.2006 18.3773 76.1761 18.8785 76.1835 20.5738C76.1908 22.0479 76.8173 22.4902 78.8664 22.7039L85.6033 23.4336C91.8536 24.1633 93.6005 26.4262 93.6226 30.9371C93.6447 35.9786 90.8439 37.9098 84.2839 37.9393L72.0632 37.9982C71.3482 37.9982 70.9502 37.6002 70.9429 36.8852L70.9502 36.8779Z"></path>
<path fill="#444C54" d="M97.4916 36.7523L97.3516 3.55453C97.3516 2.83957 97.7496 2.43418 98.4645 2.43418L102.113 2.41943C102.828 2.41943 103.233 2.81745 103.233 3.53242L103.314 22.8585V22.8364L112.705 13.3945C113.059 12.9449 113.508 12.7237 114.083 12.7164L118.587 12.6942C119.523 12.6942 119.795 13.3134 119.221 14.0726L108.371 25.2171L119.28 36.3691C119.862 37.1283 119.596 37.7474 118.66 37.7548L114.201 37.7769C113.619 37.7769 113.177 37.5558 112.815 37.1135L103.344 27.8706V27.8927L103.381 36.7229C103.381 37.4378 102.983 37.8432 102.268 37.8432L98.612 37.858C97.897 37.858 97.4916 37.4599 97.4916 36.745V36.7523Z"></path>
<path fill="#444C54" d="M121.159 28.07L121.137 22.6746C121.108 16.4758 123.149 12.8936 130.328 12.8641L137.736 12.8347C144.915 12.8052 146.986 16.3579 147.016 22.564L147.038 27.9594C147.067 34.3351 145.033 37.8731 137.846 37.9025L130.439 37.932C123.26 37.9615 121.189 34.453 121.159 28.07ZM137.684 32.4113C140.36 32.3966 141.163 31.6816 141.149 28.608L141.119 22.0481C141.104 19.0187 140.345 18.3037 137.625 18.3185L130.49 18.348C127.771 18.3627 127.012 19.0777 127.026 22.107L127.056 28.667C127.07 31.748 127.874 32.4556 130.549 32.4408L137.684 32.4113Z"></path>
<path fill="#A2BE3E" d="M32.3135 20.9424C31.9597 19.881 31.4806 18.1489 29.1662 18.9081L20.9183 21.6279L20.8815 12.6135C20.8667 10.1885 19.0462 10.7339 17.9185 10.7413C16.7834 10.7413 14.8227 10.218 14.8301 12.6429L14.867 21.6574L6.41273 19.2176C4.08357 18.4806 3.69292 20.2569 3.3465 21.3109C2.9927 22.3797 2.24089 24.1781 4.57741 24.9152L13.0317 27.3476L7.7542 34.4014C6.32428 36.3694 7.91636 37.4086 8.83033 38.0646C9.75167 38.7206 11.2406 39.8557 12.6631 37.8951L17.9406 30.8487L23.2254 37.7919C24.67 39.7378 26.0852 38.5585 26.9992 37.8951C27.9132 37.2391 29.5495 36.1998 28.1048 34.254L22.8274 27.3033L31.0679 24.5983C33.3896 23.8317 32.6894 21.9964 32.3283 20.9424M35.8441 25.6744C35.8883 35.4554 27.9058 43.4232 18.0069 43.4747C8.10063 43.519 0.0444075 35.6249 0.000183042 25.8439C-0.0440414 16.063 7.9311 8.09519 17.83 8.05097C27.7289 8.00674 35.7851 15.8934 35.8367 25.6744"></path>
</g>
<defs>
<clipPath id="clip0_17871_39389">
<rect fill="white" height="44.1118" width="149"></rect>
</clipPath>
</defs>
</svg>