<svg xmlns="http://www.w3.org/2000/svg" version="1.1" width="369" height="246">
<path d="M0 0 C121.77 0 243.54 0 369 0 C369 81.18 369 162.36 369 246 C247.23 246 125.46 246 0 246 C0 164.82 0 83.64 0 0 Z " fill="#FEFEFE" transform="translate(0,0)"/>
<path d="M0 0 C0.82113281 -0.01224609 1.64226562 -0.02449219 2.48828125 -0.03710938 C18.97384918 -0.07629852 30.93314897 7.35356347 42.4375 18.51171875 C43.91756384 20.40144312 44.23904511 21.87059415 44.75 24.1875 C41.67853079 26.06188149 38.59116475 27.90831186 35.5 29.75 C34.62730469 30.28302734 33.75460938 30.81605469 32.85546875 31.36523438 C32.01113281 31.86474609 31.16679687 32.36425781 30.296875 32.87890625 C29.52182617 33.34498291 28.74677734 33.81105957 27.94824219 34.29125977 C25.33355778 35.35728669 24.32682008 35.26876048 21.75 34.1875 C20.88375 33.424375 20.0175 32.66125 19.125 31.875 C13.20927119 26.76190776 5.96968812 24.43912125 -1.8046875 24.8046875 C-9.10166731 25.94702619 -15.29700718 29.7842351 -20.25 35.1875 C-22.93936805 38.88231568 -24.81326193 42.6017503 -25.25 47.1875 C-25.31316406 47.84492187 -25.37632812 48.50234375 -25.44140625 49.1796875 C-25.85763646 56.94036694 -23.23682636 62.93013235 -18.5 69 C-14.34443484 73.55737553 -8.3286387 76.64574533 -2.19140625 77.4609375 C5.84292748 77.80394682 13.75851588 75.79175059 19.84375 70.296875 C21.68065964 68.22786239 21.68065964 68.22786239 23.75 65.1875 C31.31812483 69.18382124 38.58688255 73.5044561 45.75 78.1875 C40.04938273 87.68852879 32.67774922 93.43169199 22.75 98.1875 C22.07453125 98.5175 21.3990625 98.8475 20.703125 99.1875 C10.32275416 103.96430782 -4.91432487 103.95249079 -15.75 100.625 C-30.88794763 94.58671127 -41.62542757 84.15504818 -48.50390625 69.51953125 C-53.05382697 58.02582908 -53.0278624 44.3690076 -48.51953125 32.8671875 C-41.34666873 17.72693001 -31.58965858 8.26899039 -15.87890625 2.09765625 C-10.45979132 0.22149907 -5.69957939 0.00439105 0 0 Z " fill="#0257D2" transform="translate(187.25,71.8125)"/>
</svg>